<?xml version="1.0" standalone="no"?>
<!DOCTYPE svg PUBLIC "-//W3C//DTD SVG 20010904//EN"
 "http://www.w3.org/TR/2001/REC-SVG-20010904/DTD/svg10.dtd">
<svg version="1.0" xmlns="http://www.w3.org/2000/svg"
 width="300.000000pt" height="300.000000pt" viewBox="0 0 300.000000 300.000000"
 preserveAspectRatio="xMidYMid meet">
<metadata>
Created by potrace 1.11, written by Peter Selinger 2001-2013
</metadata>
<g transform="translate(0.000000,300.000000) scale(0.100000,-0.100000)"
fill="#000000" stroke="none">
<path d="M1457 2914 c-1 -1 -31 -5 -67 -8 -365 -37 -681 -294 -766 -621 -21
-82 -27 -269 -12 -365 20 -132 84 -269 166 -361 113 -125 271 -203 632 -308
191 -56 283 -98 347 -159 53 -51 74 -101 75 -177 2 -175 -72 -270 -242 -313
-48 -12 -193 -12 -259 0 -77 14 -211 74 -331 148 -116 72 -180 87 -242 57 -52
-25 -60 -34 -217 -286 l-50 -80 65 -52 c97 -77 125 -94 247 -154 218 -105 392
-147 628 -151 86 -1 174 1 195 6 22 5 55 11 74 14 53 8 162 43 235 76 223 100
393 296 464 537 30 99 32 116 37 253 6 186 -21 296 -104 425 -121 188 -268
271 -761 430 -282 91 -366 163 -365 310 1 80 22 132 76 185 59 59 123 80 263
85 135 6 212 -16 400 -114 206 -108 232 -95 380 184 32 61 63 118 69 127 8 14
4 22 -19 43 -123 107 -329 202 -520 241 -11 2 -31 6 -45 9 -71 14 -341 29
-353 19z"/>
</g>
</svg>
